<svg width="100" height="100" viewBox="0 0 100 100" fill="none" xmlns="http://www.w3.org/2000/svg">
<g clip-path="url(#clip0_38_94)">
<g clip-path="url(#clip1_38_94)">
<path d="M64.0366 64.0366H0C0 81.7179 14.3359 96.0538 32.0172 96.0538C49.6985 96.0538 64.0366 81.7179 64.0366 64.0366Z" fill="currentColor"/>
<path d="M35.9634 35.9634H100C100 18.2821 85.6641 3.94617 67.9828 3.94617C50.3015 3.94617 35.9634 18.2821 35.9634 35.9634Z" fill="currentColor"/>
<path d="M64.0366 35.9634V99.9999C81.7178 99.9999 96.0538 85.664 96.0538 67.9827C96.0538 50.3014 81.7178 35.9634 64.0366 35.9634Z" fill="currentColor"/>
<path d="M35.9634 64.0366V0C18.2822 0 3.94835 14.3359 3.94835 32.0172C3.94835 49.6985 18.2843 64.0366 35.9656 64.0366H35.9634Z" fill="currentColor"/>
</g>
</g>
<defs>
<clipPath id="clip0_38_94">
<rect width="100" height="100" fill="white"/>
</clipPath>
<clipPath id="clip1_38_94">
<rect width="100" height="100" fill="white"/>
</clipPath>
</defs>
</svg>
